<mxfile host="65bd71144e">
    <diagram id="DqUhHMZeAO7fmGRj78f9" name="Page-1">
        <mxGraphModel dx="291" dy="353" grid="1" gridSize="10" guides="1" tooltips="1" connect="1" arrows="1" fold="1" page="1" pageScale="1" pageWidth="827" pageHeight="1169" math="0" shadow="0">
            <root>
                <mxCell id="0"/>
                <mxCell id="1" parent="0"/>
                <mxCell id="12" style="edgeStyle=none;html=1;" parent="1" source="2" target="11" edge="1">
                    <mxGeometry relative="1" as="geometry"/>
                </mxCell>
                <mxCell id="13" style="edgeStyle=none;html=1;" parent="1" source="2" target="10" edge="1">
                    <mxGeometry relative="1" as="geometry"/>
                </mxCell>
                <mxCell id="2" value="GestiÃ³n de usuarios&lt;br&gt;(keycloak)" style="ellipse;whiteSpace=wrap;html=1;" parent="1" vertex="1">
                    <mxGeometry x="170" y="160" width="140" height="70" as="geometry"/>
                </mxCell>
                <mxCell id="5" style="edgeStyle=none;html=1;exitX=0.5;exitY=0.5;exitDx=0;exitDy=0;exitPerimeter=0;" parent="1" source="3" target="4" edge="1">
                    <mxGeometry relative="1" as="geometry"/>
                </mxCell>
                <mxCell id="3" value="Prospecto" style="shape=umlActor;verticalLabelPosition=bottom;verticalAlign=top;html=1;" parent="1" vertex="1">
                    <mxGeometry x="30" y="55" width="30" height="60" as="geometry"/>
                </mxCell>
                <mxCell id="4" value="Landing Page + Sales Page" style="ellipse;whiteSpace=wrap;html=1;" parent="1" vertex="1">
                    <mxGeometry x="170" y="50" width="140" height="70" as="geometry"/>
                </mxCell>
                <mxCell id="9" style="edgeStyle=none;html=1;" parent="1" source="6" target="2" edge="1">
                    <mxGeometry relative="1" as="geometry"/>
                </mxCell>
                <mxCell id="20" style="edgeStyle=none;sketch=0;html=1;exitX=1;exitY=1;exitDx=0;exitDy=0;exitPerimeter=0;shadow=0;" parent="1" source="6" target="14" edge="1">
                    <mxGeometry relative="1" as="geometry"/>
                </mxCell>
                <mxCell id="22" style="edgeStyle=none;sketch=0;html=1;entryX=0;entryY=0.5;entryDx=0;entryDy=0;shadow=0;" parent="1" source="6" target="21" edge="1">
                    <mxGeometry relative="1" as="geometry"/>
                </mxCell>
                <mxCell id="25" style="edgeStyle=none;sketch=0;html=1;shadow=0;" parent="1" source="6" target="23" edge="1">
                    <mxGeometry relative="1" as="geometry"/>
                </mxCell>
                <mxCell id="26" style="edgeStyle=none;sketch=0;html=1;entryX=0.286;entryY=0;entryDx=0;entryDy=0;entryPerimeter=0;shadow=0;" parent="1" source="6" target="24" edge="1">
                    <mxGeometry relative="1" as="geometry"/>
                </mxCell>
                <mxCell id="6" value="Customer" style="shape=umlActor;verticalLabelPosition=bottom;verticalAlign=top;html=1;" parent="1" vertex="1">
                    <mxGeometry x="40" y="190" width="30" height="60" as="geometry"/>
                </mxCell>
                <mxCell id="10" value="Login" style="ellipse;whiteSpace=wrap;html=1;" parent="1" vertex="1">
                    <mxGeometry x="370" y="230" width="140" height="70" as="geometry"/>
                </mxCell>
                <mxCell id="11" value="Registro" style="ellipse;whiteSpace=wrap;html=1;" parent="1" vertex="1">
                    <mxGeometry x="390" y="115" width="140" height="70" as="geometry"/>
                </mxCell>
                <mxCell id="17" style="edgeStyle=none;html=1;exitX=1;exitY=0.5;exitDx=0;exitDy=0;backgroundOutline=0;shadow=0;sketch=0;" parent="1" source="14" edge="1">
                    <mxGeometry relative="1" as="geometry">
                        <mxPoint x="400" y="350" as="targetPoint"/>
                    </mxGeometry>
                </mxCell>
                <mxCell id="14" value="Realizar Pedidos" style="ellipse;whiteSpace=wrap;html=1;" parent="1" vertex="1">
                    <mxGeometry x="180" y="250" width="140" height="70" as="geometry"/>
                </mxCell>
                <mxCell id="15" value="Cotizador" style="ellipse;whiteSpace=wrap;html=1;" parent="1" vertex="1">
                    <mxGeometry x="390" y="340" width="140" height="70" as="geometry"/>
                </mxCell>
                <mxCell id="19" value="use" style="text;align=center;fontStyle=1;verticalAlign=middle;spacingLeft=3;spacingRight=3;strokeColor=none;rotatable=0;points=[[0,0.5],[1,0.5]];portConstraint=eastwest;" parent="1" vertex="1">
                    <mxGeometry x="310" y="310" width="80" height="26" as="geometry"/>
                </mxCell>
                <mxCell id="21" value="Seguimientos de &lt;br&gt;pedidos activos" style="ellipse;whiteSpace=wrap;html=1;" parent="1" vertex="1">
                    <mxGeometry x="190" y="336" width="140" height="70" as="geometry"/>
                </mxCell>
                <mxCell id="23" value="Membresias" style="ellipse;whiteSpace=wrap;html=1;" parent="1" vertex="1">
                    <mxGeometry x="130" y="620" width="140" height="70" as="geometry"/>
                </mxCell>
                <mxCell id="24" value="Facturas" style="ellipse;whiteSpace=wrap;html=1;" parent="1" vertex="1">
                    <mxGeometry x="180" y="450" width="140" height="70" as="geometry"/>
                </mxCell>
            </root>
        </mxGraphModel>
    </diagram>
</mxfile>